<svg id="Capa_1" enable-background="new 0 0 512 512" height="512" viewBox="0 0 512 512" width="512" xmlns="http://www.w3.org/2000/svg"><g><g><path d="m396.051 255.981c-5.024 0-9.974.322-14.831.945v-79.549l37.192 29.608c4.263 3.394 10.66 2.667 14.052-1.596 3.44-4.321 2.726-10.612-1.595-14.052l-67.036-53.368v-103.849c0-5.523-4.478-10-10-10h-63.731c-5.522 0-10 4.477-10 10v37.195l-56.553-45.019c-3.603-2.867-8.854-2.866-12.457 0l-207.32 165.041c-4.32 3.44-5.035 9.731-1.595 14.052 3.438 4.32 9.729 5.036 14.052 1.596l37.191-29.607v60.396c0 5.523 4.478 10 10 10s10-4.477 10-10v-76.317l143.9-114.554s66.551 52.979 66.553 52.981l77.347 61.573v99.859c-27.399 8.649-51.107 27.651-65.482 52.521-12.571 21.624-17.784 47.161-14.81 71.985h-20.531v-94.713c0-5.523-4.478-10-10-10h-65.897c-5.522 0-10 4.477-10 10v94.713h-101.08v-59.779c0-5.523-4.478-10-10-10s-10 4.477-10 10v69.779c0 5.523 4.478 10 10 10h221.739c14.531 47.452 58.744 82.06 110.892 82.06 63.935-.002 115.949-52.017 115.949-115.951 0-63.935-52.014-115.95-115.949-115.95zm-95.949-211.861h43.731v77.928l-43.731-34.812zm-105.603 341.7v-84.713h45.897v84.713zm201.552 82.06c-51.719 0-95.199-42.902-95.932-94.596-.728-52.748 43.158-97.302 95.932-97.302 52.906 0 95.949 43.043 95.949 95.95s-43.043 95.948-95.949 95.948z"/><path d="m404.737 298.373c-1.78-3.118-5.095-5.043-8.686-5.043s-6.905 1.925-8.686 5.043l-36.282 63.579c-3.019 5.291-4.614 11.307-4.614 17.4 0 23.915 17.019 43.93 39.582 48.569v10.755c0 5.523 4.478 10 10 10s10-4.477 10-10v-10.756c22.563-4.639 39.582-24.653 39.582-48.569 0-6.092-1.596-12.109-4.615-17.4zm1.314 108.818v-28.367c0-5.523-4.478-10-10-10s-10 4.477-10 10v28.367c-11.405-4.109-19.582-15.036-19.582-27.839 0-2.623.687-5.212 1.985-7.487l27.597-48.359 27.596 48.359c1.3 2.277 1.986 4.866 1.986 7.487 0 12.803-8.177 23.729-19.582 27.839z"/><path d="m55.1 286.85c3.048 4.528 9.322 5.775 13.87 2.76 4.548-3.016 5.763-9.333 2.76-13.86-3.01-4.537-9.335-5.794-13.859-2.77s-5.788 9.337-2.771 13.87z"/><path d="m264.597 209.161c5.522 0 10-4.477 10-10v-9.285c0-31.475-25.606-57.082-57.082-57.082s-57.082 25.607-57.082 57.082v9.285c0 5.523 4.478 10 10 10zm-10.007-20h-27.075v-34.986c15.384 4.315 26.759 18.316 27.075 34.986zm-47.075-34.986v34.986h-27.075c.316-16.67 11.691-30.671 27.075-34.986z"/><path d="m219.73 339.64c-2.097-5.03-8.013-7.499-13.06-5.41-5.031 2.083-7.498 8.029-5.41 13.06 2.088 5.033 8.029 7.487 13.06 5.41 5.028-2.077 7.503-8.035 5.41-13.06z"/></g></g></svg>