<svg xmlns="http://www.w3.org/2000/svg" xmlns:xlink="http://www.w3.org/1999/xlink" width="375" height="812" viewBox="0 0 375 812">
  <defs>
    <clipPath id="clip-iPhone_X_XS_11_Pro_1">
      <rect width="375" height="812"/>
    </clipPath>
  </defs>
  <g id="iPhone_X_XS_11_Pro_1" data-name="iPhone X/XS/11 Pro – 1" clip-path="url(#clip-iPhone_X_XS_11_Pro_1)">
    <rect width="375" height="812" fill="#fff"/>
    <path id="heart-regular" d="M171,44.036c-21.562-18.13-54.875-15.407-75.5,5.6-20.629-21-53.943-23.763-75.5-5.6-28.053,23.614-23.95,62.112-3.954,82.518l65.432,66.663a19.594,19.594,0,0,0,28.053.037l65.432-66.663C194.917,106.185,199.1,67.687,171,44.036Zm-8.8,69.946L96.768,180.645a1.534,1.534,0,0,1-2.537,0L28.8,113.982C15.183,100.1,12.422,73.842,31.522,57.764c14.512-12.2,36.894-10.371,50.921,3.917L95.5,75l13.057-13.318c14.1-14.362,36.484-16.116,50.921-3.954C178.54,73.8,175.7,100.217,162.2,113.982Z" transform="translate(68 206.471)" fill="#49ceaf"/>
  </g>
</svg>
