<svg id="Layer_1" enable-background="new 0 0 511.954 511.954" height="512" viewBox="0 0 511.954 511.954" width="512" xmlns="http://www.w3.org/2000/svg"><path d="m450.191 352.755c-129.24-48.315-259.142-48.33-388.421 0-91.136 34.071-79.037 121.332 28.115 142.707 110.21 21.99 221.982 21.99 332.191 0 106.899-21.325 119.443-108.563 28.115-142.707z" fill="#c69a85"/><path d="m464.41 86.86c-51.753-35.148-119.869-41.359-179.387-12.518-34.991 16.954-63.783 41.792-70.729 80.046-11.248 61.963 41.603 125.506 112.666 110.402 77.918-16.563 137.434-82.415 144.401-163.321.497-5.768-2.161-11.356-6.951-14.609z" fill="#91c656"/><path d="m258.228 88.292c-41.514-68.968-123.057-102.914-200.594-82.323-5.596 1.485-9.953 5.879-11.392 11.487-29.438 114.726 60.018 216.139 131.452 216.139 68.475 0 121.297-77.589 80.534-145.303z" fill="#9bd65e"/><path d="m450.191 352.755c-129.24-48.315-259.142-48.33-388.421 0-37.141 13.885-59.738 38.045-61 64.978 53.061 33.425 138.238 63.879 246.732 23.867 101.136-37.298 191.179-49.703 253.235-53.156-10.248-14.633-27.624-27.119-50.546-35.689z" fill="#dfb7a4"/><path d="m129.045 332.009c28.775 5.781 56.366 16.149 71.35 34.519 26.795 32.85 156.316 4.646 236.425-18.59-103.123-35.85-205.408-40.868-307.775-15.929z" fill="#e0c8bf"/><path d="m471.362 101.469c.497-5.769-2.162-11.356-6.952-14.609-33.74-22.915-75.681-34.287-118.879-29.775 1.67 18.472-1.076 43.519-11.892 77.501-17.788 55.887-14.046 99.994.897 128.4 76.065-19.647 130.242-85.062 136.826-161.517z" fill="#9bd65e"/><path d="m471.362 101.469c.497-5.769-2.162-11.356-6.952-14.609-17.199-11.681-36.358-20.22-56.483-25.303-14.682 48.354-29.795 120.997 2.428 144.511 4.568 3.333 9.432 3.905 14.496 2.211 27.203-30.115 43.166-67.965 46.511-106.81z" fill="#aced70"/><path d="m194.988 25.342c-42.898-25.549-92.547-31.272-137.354-19.373-5.596 1.485-9.953 5.879-11.392 11.487-16.08 62.666 1.966 131.957 52.446 179.209 73.315-10.641 88.313-97.601 96.3-171.323z" fill="#aced70"/><path d="m151.448 6.663c-30.901-8.653-63.342-8.786-93.814-.694-5.596 1.485-9.953 5.879-11.392 11.487-10.116 39.424-6.813 81.995 10.265 120.132 14.022-5.556 29.325-20.196 45.638-48.481 18.527-32.123 35.403-59.431 49.303-82.444z" fill="#c8f29c"/><path d="m382.813 125.123c-2.63-8.438-11.604-13.138-20.037-10.514-46.947 14.636-82.343 36.982-116.074 73.655-17.974-43.802-47.623-76.485-84.048-92.416-8.097-3.543-17.53.151-21.071 8.248-3.541 8.096.152 17.529 8.248 21.07 57.865 25.309 105.478 114.037 73.277 249.045-2.394 10.036 5.215 19.716 15.577 19.716 7.237 0 13.798-4.944 15.55-12.292 13.724-57.538 14.876-111.775 3.59-158.754 10.747-6.511 35.246-53.022 114.475-77.722 8.436-2.629 13.143-11.6 10.513-20.036z" fill="#77a042"/></svg>