<svg height="682pt" viewBox="-123 -21 682 682.66372" width="682pt" xmlns="http://www.w3.org/2000/svg"><path d="m357.003906 563.742188c-21.730468-2.066407-30.539062-14.613282-39.863281-27.898438-8.019531-11.421875-16.304687-23.230469-32.195313-26.835938-19.382812-4.410156-32.753906 1.433594-45.683593 7.089844-5.710938 2.5-11.546875 5.046875-18.304688 6.992188v-158.621094l42.03125-40.832031c12.652344-.066407 78.167969-2.492188 120.226563-44.546875 45.726562-45.722656 44.609375-119.164063 44.535156-122.269532-.113281-5.011718-4.144531-9.046874-9.160156-9.160156-.492188-.011718-12.476563-.25-29.632813 2.292969-11.910156 1.765625-9.175781 20.3125 2.746094 18.546875 6.6875-.992188 12.519531-1.515625 17-1.792969-1.265625 20.148438-7.59375 67.980469-38.746094 99.125-25.539062 25.53125-62.464843 34.378907-86 37.4375l73.460938-71.367187c8.632812-8.386719-4.417969-21.84375-13.066407-13.453125l-71.8125 69.765625c3.417969-23.554688 12.570313-58.300782 37.03125-82.765625 8.253907-8.25 18.332032-15.378907 29.953126-21.179688 10.765624-5.378906 2.402343-22.160156-8.378907-16.777343-13.429687 6.710937-25.148437 15.019531-34.832031 24.699218-38.640625 38.640625-43.828125 97.078125-44.464844 116.125l-30.890625 30.011719v-102.753906c11.445313-11.921875 52.074219-58.261719 52.074219-115.027344 0-64.664063-52.726562-115.808594-54.96875-117.949219-3.628906-3.464844-9.332031-3.464844-12.960938 0-2.238281 2.140625-54.96875 53.285156-54.96875 117.949219 0 10.371094 1.386719 21.058594 4.125 31.769531 2.980469 11.667969 21.148438 7.042969 18.164063-4.636718-2.347656-9.199219-3.539063-18.332032-3.539063-27.132813 0-43.902344 29.359376-82.292969 42.710938-97.472656 13.359375 15.152343 42.6875 53.4375 42.6875 97.472656 0 35.273437-18.949219 66.976563-33.324219 85.949219v-104.261719c0-12.035156-18.75-12.054687-18.75 0v104.328125c-2.898437-3.820312-5.972656-8.121094-9.042969-12.886719-6.511718-10.121093-22.289062.015625-15.761718 10.144531 10 15.542969 20.015625 26.726563 24.804687 31.738282v195.171875l-28.417969-29.25c-.0625-12.636719-2.484374-78.152344-44.550781-120.21875-45.722656-45.722657-119.179687-44.601563-122.273437-44.53125-5.011719.113281-9.046875 4.152343-9.160156 9.160156-.070313 3.105469-1.191407 76.546875 44.535156 122.269531 38.648437 38.644532 97.085937 43.828125 116.136718 44.464844l43.734376 45.015625v68.292969c-8.203126-.597656-14.992188-5.023438-23.230469-10.398438-17.765625-11.597656-35.941407-18.285156-57.148438-11.578125-19.496093 6.171875-29.453125 22.105469-37.515625 39.707031-6.984375 15.25-11.582031 23.945313-24.769531 25.316407-24.546875 2.558593-42.75 11.027343-54.105469 25.175781-13.917968 17.324219-11.878906 36.714844-11.789062 37.53125.542968 4.734375 4.546875 8.308594 9.316406 8.308594h61.113281c12.042969 0 12.058594-18.75 0-18.75h-51.152343c.890624-4.421875 2.859374-10.039063 7.125-15.351563 8.109374-10.101562 22.050781-16.242187 41.429687-18.261719 24.484375-2.550781 33.019531-21.183593 39.875-36.160156 5.765625-12.582031 11.949219-25.03125 26.023437-29.605468 15.78125-5.132813 28.292969.839843 41.347657 9.371093 10.929687 7.132813 23.316406 15.21875 40.660156 13.222657 16.039063-1.851563 27.382813-6.808594 37.386719-11.183594 11.988281-5.242188 20.644531-9.03125 34.019531-5.988282 8.414063 1.90625 13.460937 8.585938 20.996094 19.324219 10.292969 14.660157 23.101562 32.90625 53.4375 35.796875 42.535156 4.050782 52.195312 19.460938 54.792969 38.835938h-294.691407c-12.035156 0-12.054687 18.75 0 18.75h304.878907c5.277343 0 9.613281-4.539063 9.359374-9.816406-1.40625-29.566407-11.128906-60.582032-72.566406-66.4375zm-301.40625-208.835938c-31.039062-31.035156-37.425781-78.921875-38.726562-99.105469 20.195312 1.300781 68.078125 7.6875 99.113281 38.722657 25.535156 25.539062 34.382813 62.464843 37.445313 86l-71.378907-73.460938c-3.605469-3.710938-9.539062-3.796875-13.253906-.191406-3.710937 3.609375-3.800781 9.546875-.191406 13.257812l69.726562 71.761719c-23.585937-3.441406-58.355469-12.609375-82.734375-36.984375zm0 0"/><path d="m133.105469 559.125c-12.0625 0-12.082031 18.75 0 18.75 12.066406 0 12.085937-18.75 0-18.75zm0 0"/><path d="m229.898438 586.589844c-12.066407 0-12.085938 18.75 0 18.75 12.066406 0 12.085937-18.75 0-18.75zm0 0"/><path d="m280.910156 552.585938c-12.066406 0-12.085937 18.75 0 18.75 12.0625 0 12.082032-18.75 0-18.75zm0 0"/></svg>