<svg height="512pt" viewBox="-112 0 512 512" width="512pt" xmlns="http://www.w3.org/2000/svg"><path d="m192 64.015625h-95.976562c-4.421876 0-8-3.574219-8-8v-48.015625c0-4.425781 3.578124-8 8-8h95.976562c4.425781 0 8 3.574219 8 8v48.015625c0 4.425781-3.574219 8-8 8zm-87.976562-16h79.976562v-32.015625h-79.976562zm0 0"/><path d="m112 131.761719c-4.425781 0-8-3.578125-8-8v-67.746094c0-4.421875 3.574219-8 8-8s8 3.578125 8 8v67.746094c0 4.414062-3.574219 8-8 8zm0 0"/><path d="m176 131.761719c-4.425781 0-8-3.578125-8-8v-67.746094c0-4.421875 3.574219-8 8-8s8 3.578125 8 8v67.746094c0 4.414062-3.574219 8-8 8zm0 0"/><path d="m280 263.96875c-4.425781 0-8-3.578125-8-8 0-59.367188-40.246094-110.535156-97.871094-124.441406-4.296875-1.03125-6.9375-5.351563-5.898437-9.648438 1.035156-4.292968 5.363281-6.941406 9.648437-5.894531 64.839844 15.632813 110.121094 73.191406 110.121094 139.984375 0 4.421875-3.574219 8-8 8zm0 0"/><path d="m8 263.96875c-4.425781 0-8-3.578125-8-8 0-66.785156 45.28125-124.351562 110.121094-139.984375 4.285156-1.046875 8.613281 1.601563 9.648437 5.894531 1.039063 4.296875-1.601562 8.617188-5.898437 9.648438-57.632813 13.90625-97.871094 65.074218-97.871094 124.441406 0 4.421875-3.574219 8-8 8zm0 0"/><path d="m8 480c-4.425781 0-8-3.574219-8-8v-216.03125c0-4.425781 3.574219-8 8-8s8 3.574219 8 8v216.03125c0 4.425781-3.574219 8-8 8zm0 0"/><path d="m280 480c-4.425781 0-8-3.574219-8-8v-216.03125c0-4.425781 3.574219-8 8-8s8 3.574219 8 8v216.03125c0 4.425781-3.574219 8-8 8zm0 0"/><path d="m40 512c-22.054688 0-40-17.945312-40-40 0-4.425781 3.574219-8 8-8s8 3.574219 8 8c0 13.230469 10.769531 24 24 24 4.425781 0 8 3.574219 8 8s-3.574219 8-8 8zm0 0"/><path d="m248 512c-4.425781 0-8-3.574219-8-8s3.574219-8 8-8c13.230469 0 24-10.769531 24-24 0-4.425781 3.574219-8 8-8s8 3.574219 8 8c0 22.054688-17.945312 40-40 40zm0 0"/><path d="m248 512h-208c-4.425781 0-8-3.574219-8-8s3.574219-8 8-8h208c4.425781 0 8 3.574219 8 8s-3.574219 8-8 8zm0 0"/><path d="m111.992188 383.984375c-4.425782 0-8-3.578125-8-8v-18.03125c0-4.425781 3.574218-8 8-8 4.421874 0 8 3.574219 8 8v18.03125c0 4.421875-3.578126 8-8 8zm0 0"/><path d="m176 383.984375h-64.007812c-4.425782 0-8-3.578125-8-8 0-4.425781 3.574218-8 8-8h64.007812c4.425781 0 8 3.574219 8 8 0 4.421875-3.574219 8-8 8zm0 0"/><path d="m176 383.984375c-4.425781 0-8-3.578125-8-8v-18.023437c0-4.425782 3.574219-8 8-8s8 3.574218 8 8v18.023437c0 4.421875-3.574219 8-8 8zm0 0"/><path d="m144 383.984375c-4.425781 0-8-3.578125-8-8v-8c0-4.425781 3.574219-8 8-8s8 3.574219 8 8v8c0 4.421875-3.574219 8-8 8zm0 0"/><path d="m160.273438 319.976562c-4.425782 0-8.042969-3.578124-8.042969-8 0-4.425781 3.539062-8 7.953125-8h.089844c4.414062 0 8 3.574219 8 8 0 4.421876-3.585938 8-8 8zm0 0"/><path d="m128.238281 319.976562c-4.421875 0-8.039062-3.578124-8.039062-8 0-4.425781 3.535156-8 7.953125-8h.085937c4.417969 0 8 3.574219 8 8 0 4.421876-3.582031 8-8 8zm0 0"/><path d="m81.359375 448.039062c-3.398437 0-6.542969-2.175781-7.625-5.582031-1.335937-4.21875 1-8.714843 5.210937-10.042969l126.65625-40.039062c4.230469-1.34375 8.710938 1.007812 10.039063 5.210938 1.335937 4.214843-1 8.710937-5.207031 10.039062l-126.65625 40.039062c-.808594.257813-1.617188.375-2.417969.375zm0 0"/><path d="m206.640625 448.039062c-.800781 0-1.609375-.117187-2.417969-.375l-126.65625-40.039062c-4.207031-1.328125-6.542968-5.824219-5.207031-10.039062 1.335937-4.203126 5.824219-6.554688 10.039063-5.210938l126.65625 40.039062c4.210937 1.328126 6.546874 5.824219 5.210937 10.042969-1.082031 3.398438-4.226563 5.582031-7.625 5.582031zm0 0"/><path d="m267.976562 207.984375h-247.953124c-4.421876 0-8-3.578125-8-8 0-4.425781 3.578124-8 8-8h247.953124c4.421876 0 8 3.574219 8 8 0 4.421875-3.578124 8-8 8zm0 0"/><path d="m176.007812 365.960938c-2.527343 0-5.015624-1.191407-6.566406-3.425782-2.519531-3.625-1.640625-8.613281 1.984375-11.144531 12.878907-8.976563 20.574219-23.695313 20.574219-39.375 0-26.472656-21.527344-48-48-48s-48 21.527344-48 48c0 15.671875 7.6875 30.390625 20.566406 39.375 3.625 2.53125 4.503906 7.511719 1.984375 11.144531-2.527343 3.617188-7.503906 4.503906-11.144531 1.984375-17.160156-11.984375-27.40625-31.609375-27.40625-52.503906 0-35.289063 28.710938-64 64-64s64 28.710937 64 64c0 20.90625-10.246094 40.535156-27.425781 52.503906-1.398438.976563-2.988281 1.441407-4.566407 1.441407zm0 0"/></svg>