<svg height="512pt" viewBox="0 0 512.00013 512" width="512pt" xmlns="http://www.w3.org/2000/svg"><path d="m503.226562 93.140625-84.367187-84.367187c-11.699219-11.699219-30.734375-11.699219-42.433594 0l-117.828125 117.828124c0 .003907 0 .003907-.003906.003907l-87.980469 87.980469c-.003906.003906-.003906.003906-.003906.003906l-131.964844 131.96875c-.003906 0-.003906.003906-.007812.003906 0 0-.003907.003906-.003907.003906l-29.859374 29.859375c-11.699219 11.699219-11.699219 30.734375 0 42.433594l84.367187 84.367187c5.851563 5.847657 13.53125 8.773438 21.214844 8.773438 7.683593 0 15.367187-2.925781 21.21875-8.773438l45.566406-45.566406c3.90625-3.90625 3.90625-10.238281 0-14.144531s-10.238281-3.90625-14.144531 0l-45.566406 45.566406c-3.898438 3.902344-10.246094 3.902344-14.144532 0l-84.367187-84.367187c-3.902344-3.898438-3.902344-10.246094 0-14.144532l22.792969-22.789062 33.164062 33.164062c1.953125 1.953126 4.511719 2.925782 7.070312 2.925782 2.558594 0 5.121094-.972656 7.070313-2.925782 3.90625-3.90625 3.90625-10.238281 0-14.148437l-33.164063-33.164063 29.847657-29.847656 11.707031 11.707032c1.953125 1.953124 4.511719 2.929687 7.070312 2.929687 2.558594 0 5.121094-.976563 7.074219-2.929687 3.902344-3.90625 3.902344-10.238282 0-14.144532l-11.707031-11.707031 29.847656-29.847656 33.164063 33.164062c1.953125 1.953125 4.511719 2.929688 7.074219 2.929688 2.558593 0 5.117187-.976563 7.070312-2.929688 3.90625-3.902343 3.90625-10.238281 0-14.140625l-33.164062-33.167968 29.847656-29.847657 11.707031 11.707031c1.953125 1.953126 4.511719 2.929688 7.070313 2.929688 2.558593 0 5.121093-.976562 7.070312-2.929688 3.90625-3.90625 3.90625-10.238281 0-14.144531l-11.703125-11.707031 29.847656-29.847656 33.148438 33.152344c1.953125 1.953124 4.515625 2.929687 7.074219 2.929687 2.558593 0 5.117187-.976563 7.070312-2.929687 3.90625-3.90625 3.90625-10.238282 0-14.144532l-33.152344-33.152344 29.847656-29.847656 11.707032 11.707032c1.953125 1.953124 4.511718 2.929687 7.070312 2.929687 2.5625 0 5.121094-.976563 7.074219-2.929687 3.90625-3.90625 3.90625-10.238282 0-14.144532l-11.707031-11.707031 29.847656-29.847656 33.164062 33.164062c1.957032 1.953125 4.515626 2.929688 7.074219 2.929688 2.558594 0 5.121094-.976563 7.070313-2.929688 3.90625-3.90625 3.90625-10.238281 0-14.144531l-33.164063-33.164062 29.847657-29.847657 11.707031 11.707031c1.953125 1.953126 4.511719 2.929688 7.070312 2.929688 2.558594 0 5.121094-.976562 7.074219-2.929688 3.902344-3.90625 3.902344-10.238281 0-14.144531l-11.703125-11.703125 22.773437-22.773437c3.898438-3.898438 10.246094-3.898438 14.144532 0l84.367187 84.367187c3.898438 3.898438 3.898438 10.246094 0 14.144532l-265.507812 265.507812c-3.90625 3.90625-3.90625 10.238281 0 14.144531s10.238281 3.90625 14.144531 0l265.507812-265.507812c11.699219-11.699219 11.699219-30.734375 0-42.433594zm0 0"/><path d="m202.421875 412.359375c-2.640625 0-5.21875 1.070313-7.078125 2.929687-1.863281 1.859376-2.921875 4.441407-2.921875 7.070313 0 2.632813 1.058594 5.210937 2.921875 7.070313 1.859375 1.863281 4.4375 2.929687 7.078125 2.929687 2.632813 0 5.210937-1.066406 7.070313-2.929687 1.863281-1.859376 2.933593-4.4375 2.933593-7.070313 0-2.628906-1.070312-5.210937-2.933593-7.070313-1.859376-1.859374-4.4375-2.929687-7.070313-2.929687zm0 0"/></svg>