<?xml version="1.0" encoding="iso-8859-1"?>
<!-- Generator: Adobe Illustrator 19.0.0, SVG Export Plug-In . SVG Version: 6.00 Build 0)  -->
<svg version="1.1" id="Layer_1" xmlns="http://www.w3.org/2000/svg" xmlns:xlink="http://www.w3.org/1999/xlink" x="0px" y="0px"
	 viewBox="0 0 512 512" style="enable-background:new 0 0 512 512;" xml:space="preserve">
<g>
	<g>
		<path d="M480.856,410.252l-154.228-154.14c-4.11-4.106-10.766-4.103-14.874,0.004c-4.106,4.108-4.104,10.767,0.004,14.874
			l154.229,154.14c2.054,2.052,4.744,3.078,7.435,3.078c2.695,0,5.385-1.029,7.439-3.083
			C484.967,421.019,484.964,414.359,480.856,410.252z"/>
	</g>
</g>
<g>
	<g>
		<path d="M508.917,438.295l-3.744-3.741c-4.111-4.104-10.769-4.102-14.874,0.006c-4.105,4.109-4.102,10.767,0.006,14.874
			l3.744,3.741c2.054,2.051,4.744,3.077,7.434,3.077c2.693,0,5.386-1.029,7.44-3.084
			C513.028,449.06,513.025,442.401,508.917,438.295z"/>
	</g>
</g>
<g>
	<g>
		<path d="M417.226,410.252l-90.599-90.511c-4.108-4.106-10.769-4.103-14.873,0.007c-4.105,4.109-4.102,10.767,0.007,14.873
			l90.6,90.511c2.053,2.052,4.743,3.077,7.432,3.077c2.692,0,5.387-1.029,7.44-3.085
			C421.338,421.017,421.335,414.358,417.226,410.252z"/>
	</g>
</g>
<g>
	<g>
		<path d="M445.286,438.296l-3.743-3.741c-4.11-4.104-10.767-4.102-14.874,0.006c-4.105,4.109-4.102,10.767,0.006,14.874
			l3.744,3.741c2.054,2.051,4.744,3.077,7.433,3.077c2.693,0,5.386-1.029,7.44-3.084
			C449.398,449.062,449.394,442.403,445.286,438.296z"/>
	</g>
</g>
<g>
	<g>
		<path d="M326.403,212.844L172.372,58.815c-1.973-1.972-4.648-3.081-7.437-3.081s-5.464,1.109-7.437,3.081L3.08,213.232
			c-3.007,3.008-3.907,7.531-2.28,11.462c1.628,3.929,5.463,6.492,9.717,6.492h31.366v214.55c0,5.808,4.709,10.517,10.517,10.517
			h225.067c5.809,0,10.517-4.71,10.517-10.517v-214.55h31.367c0,0,0.013,0,0.021,0c5.809,0,10.517-4.71,10.517-10.517
			C329.89,217.563,328.544,214.771,326.403,212.844z M209.106,435.17h-88.344V287.93h88.344V435.17z M266.95,435.218h-36.81V277.412
			c0-5.808-4.71-10.517-10.517-10.517H110.245c-5.808,0-10.517,4.71-10.517,10.517v157.806h-36.81V231.185H266.95V435.218z
			 M35.909,210.152L164.934,81.126L293.96,210.152H35.909z"/>
	</g>
</g>
<g>
	<g>
		<path d="M353.331,410.255l-26.712-26.624c-4.113-4.1-10.771-4.089-14.874,0.024c-4.1,4.114-4.089,10.773,0.024,14.874
			l26.712,26.624c2.053,2.046,4.739,3.068,7.425,3.068c2.697,0,5.394-1.031,7.449-3.092
			C357.455,421.015,357.444,414.356,353.331,410.255z"/>
	</g>
</g>
<g>
	<g>
		<path d="M381.4,438.308l-3.743-3.741c-4.111-4.104-10.768-4.102-14.874,0.006c-4.105,4.109-4.102,10.767,0.006,14.874l3.744,3.741
			c2.054,2.051,4.744,3.077,7.433,3.077c2.693,0,5.386-1.027,7.44-3.084C385.511,449.073,385.508,442.415,381.4,438.308z"/>
	</g>
</g>
<g>
</g>
<g>
</g>
<g>
</g>
<g>
</g>
<g>
</g>
<g>
</g>
<g>
</g>
<g>
</g>
<g>
</g>
<g>
</g>
<g>
</g>
<g>
</g>
<g>
</g>
<g>
</g>
<g>
</g>
</svg>
